<svg xmlns="http://www.w3.org/2000/svg" xmlns:xlink="http://www.w3.org/1999/xlink" width="1349pt" height="1939pt" viewBox="0.00 0.00 1349.00 1939.00">
<g id="graph0" class="graph" transform="scale(1 1) rotate(0) translate(4 1935.4)">
<title>ATM_Para_Cekme_Sistemi</title>
<polygon fill="white" stroke="none" points="-4,4 -4,-1935.4 1345.18,-1935.4 1345.18,4 -4,4"/>
<!-- BASLA -->
<g id="node1" class="node">
<title>BASLA</title>
<ellipse fill="lightgreen" stroke="black" cx="279.43" cy="-1913.4" rx="42.15" ry="18"/>
<text xml:space="preserve" text-anchor="middle" x="279.43" y="-1909.2" font-family="Times,serif" font-size="14.00">BAŞLA</text>
</g>
<!-- INIT -->
<g id="node12" class="node">
<title>INIT</title>
<polygon fill="lightblue" stroke="black" points="364.86,-1858.4 193.99,-1858.4 193.99,-1816.8 364.86,-1816.8 364.86,-1858.4"/>
<text xml:space="preserve" text-anchor="middle" x="279.43" y="-1841.8" font-family="Times,serif" font-size="14.00">pin_hakkı = 3</text>
<text xml:space="preserve" text-anchor="middle" x="279.43" y="-1825" font-family="Times,serif" font-size="14.00">günlük_çekilen_toplam = 0</text>
</g>
<!-- BASLA&#45;&gt;INIT -->
<g id="edge1" class="edge">
<title>BASLA-&gt;INIT</title>
<path fill="none" stroke="black" d="M279.43,-1894.91C279.43,-1887.55 279.43,-1878.75 279.43,-1870.32"/>
<polygon fill="black" stroke="black" points="282.93,-1870.35 279.43,-1860.35 275.93,-1870.35 282.93,-1870.35"/>
</g>
<!-- BITIS -->
<g id="node2" class="node">
<title>BITIS</title>
<ellipse fill="lightgreen" stroke="black" cx="239.43" cy="-870.8" rx="37.86" ry="18"/>
<text xml:space="preserve" text-anchor="middle" x="239.43" y="-866.6" font-family="Times,serif" font-size="14.00">BİTİŞ</text>
</g>
<!-- OKU_KART -->
<g id="node3" class="node">
<title>OKU_KART</title>
<polygon fill="yellow" stroke="black" points="413.7,-1779.8 200.1,-1779.8 145.15,-1696.6 358.76,-1696.6 413.7,-1779.8"/>
<text xml:space="preserve" text-anchor="middle" x="279.43" y="-1742.4" font-family="Times,serif" font-size="14.00">YAZ: Kart Takınız</text>
<text xml:space="preserve" text-anchor="middle" x="279.43" y="-1725.6" font-family="Times,serif" font-size="14.00">OKU: kart_takili</text>
</g>
<!-- KART_TAKILI_MI -->
<g id="node15" class="node">
<title>KART_TAKILI_MI</title>
<polygon fill="orange" stroke="black" points="279.43,-1659.6 184.49,-1618 279.43,-1576.4 374.37,-1618 279.43,-1659.6"/>
<text xml:space="preserve" text-anchor="middle" x="279.43" y="-1622.2" font-family="Times,serif" font-size="14.00">kart_takili</text>
<text xml:space="preserve" text-anchor="middle" x="279.43" y="-1605.4" font-family="Times,serif" font-size="14.00">DOĞRU MU?</text>
</g>
<!-- OKU_KART&#45;&gt;KART_TAKILI_MI -->
<g id="edge3" class="edge">
<title>OKU_KART-&gt;KART_TAKILI_MI</title>
<path fill="none" stroke="black" d="M279.43,-1696.19C279.43,-1688.12 279.43,-1679.56 279.43,-1671.18"/>
<polygon fill="black" stroke="black" points="282.93,-1671.45 279.43,-1661.45 275.93,-1671.45 282.93,-1671.45"/>
</g>
<!-- OKU_PIN -->
<g id="node4" class="node">
<title>OKU_PIN</title>
<polygon fill="yellow" stroke="black" points="306.64,-1523.6 112.23,-1523.6 62.22,-1440.4 256.62,-1440.4 306.64,-1523.6"/>
<text xml:space="preserve" text-anchor="middle" x="184.43" y="-1486.2" font-family="Times,serif" font-size="14.00">YAZ: PIN Giriniz</text>
<text xml:space="preserve" text-anchor="middle" x="184.43" y="-1469.4" font-family="Times,serif" font-size="14.00">OKU: girilen_pin</text>
</g>
<!-- PIN_DOGRU_MU -->
<g id="node16" class="node">
<title>PIN_DOGRU_MU</title>
<polygon fill="orange" stroke="black" points="184.43,-1403.4 21.42,-1385.4 184.43,-1367.4 347.43,-1385.4 184.43,-1403.4"/>
<text xml:space="preserve" text-anchor="middle" x="184.43" y="-1381.2" font-family="Times,serif" font-size="14.00">girilen_pin == kayitli_pin?</text>
</g>
<!-- OKU_PIN&#45;&gt;PIN_DOGRU_MU -->
<g id="edge7" class="edge">
<title>OKU_PIN-&gt;PIN_DOGRU_MU</title>
<path fill="none" stroke="black" d="M184.43,-1440.06C184.43,-1431.57 184.43,-1422.8 184.43,-1414.88"/>
<polygon fill="black" stroke="black" points="187.93,-1415.15 184.43,-1405.15 180.93,-1415.15 187.93,-1415.15"/>
</g>
<!-- OKU_TUTAR -->
<g id="node5" class="node">
<title>OKU_TUTAR</title>
<polygon fill="yellow" stroke="black" points="1199.09,-783.2 991.23,-783.2 937.76,-700 1145.62,-700 1199.09,-783.2"/>
<text xml:space="preserve" text-anchor="middle" x="1068.43" y="-745.8" font-family="Times,serif" font-size="14.00">YAZ: Tutar Giriniz</text>
<text xml:space="preserve" text-anchor="middle" x="1068.43" y="-729" font-family="Times,serif" font-size="14.00">OKU: istenen_tutar</text>
</g>
<!-- TUTAR_20_KATI -->
<g id="node21" class="node">
<title>TUTAR_20_KATI</title>
<polygon fill="orange" stroke="black" points="1107.43,-663 936.96,-645 1107.43,-627 1277.9,-645 1107.43,-663"/>
<text xml:space="preserve" text-anchor="middle" x="1107.43" y="-640.8" font-family="Times,serif" font-size="14.00">istenen_tutar MOD 20 != 0?</text>
</g>
<!-- OKU_TUTAR&#45;&gt;TUTAR_20_KATI -->
<g id="edge21" class="edge">
<title>OKU_TUTAR-&gt;TUTAR_20_KATI</title>
<path fill="none" stroke="black" d="M1085.31,-699.66C1088.99,-690.73 1092.79,-681.5 1096.19,-673.26"/>
<polygon fill="black" stroke="black" points="1099.36,-674.74 1099.94,-664.16 1092.89,-672.07 1099.36,-674.74"/>
</g>
<!-- OKU_SECIM -->
<g id="node6" class="node">
<title>OKU_SECIM</title>
<polygon fill="yellow" stroke="black" points="1008.95,-1220.2 790.18,-1220.2 733.9,-1137 952.67,-1137 1008.95,-1220.2"/>
<text xml:space="preserve" text-anchor="middle" x="871.43" y="-1182.8" font-family="Times,serif" font-size="14.00">YAZ: İşlem Seçiniz</text>
<text xml:space="preserve" text-anchor="middle" x="871.43" y="-1166" font-family="Times,serif" font-size="14.00">OKU: secim</text>
</g>
<!-- SECIM_CIKIS_MI -->
<g id="node18" class="node">
<title>SECIM_CIKIS_MI</title>
<polygon fill="orange" stroke="black" points="634.43,-1100 551.84,-1082 634.43,-1064 717.01,-1082 634.43,-1100"/>
<text xml:space="preserve" text-anchor="middle" x="634.43" y="-1077.8" font-family="Times,serif" font-size="14.00">secim == 3?</text>
</g>
<!-- OKU_SECIM&#45;&gt;SECIM_CIKIS_MI -->
<g id="edge14" class="edge">
<title>OKU_SECIM-&gt;SECIM_CIKIS_MI</title>
<path fill="none" stroke="black" d="M768.51,-1136.52C734.73,-1123.04 699.24,-1108.87 673.26,-1098.5"/>
<polygon fill="black" stroke="black" points="674.73,-1095.32 664.15,-1094.86 672.14,-1101.82 674.73,-1095.32"/>
</g>
<!-- OKU_DEKONT -->
<g id="node7" class="node">
<title>OKU_DEKONT</title>
<polygon fill="yellow" stroke="black" points="1261.5,-245 970.27,-245 895.35,-161.8 1186.58,-161.8 1261.5,-245"/>
<text xml:space="preserve" text-anchor="middle" x="1078.43" y="-207.6" font-family="Times,serif" font-size="14.00">YAZ: Dekont İster Misiniz?</text>
<text xml:space="preserve" text-anchor="middle" x="1078.43" y="-190.8" font-family="Times,serif" font-size="14.00">OKU: dekont_cevap</text>
</g>
<!-- DEKONT_EVET -->
<g id="node24" class="node">
<title>DEKONT_EVET</title>
<polygon fill="orange" stroke="black" points="863.43,-124.8 713.74,-106.8 863.43,-88.8 1013.12,-106.8 863.43,-124.8"/>
<text xml:space="preserve" text-anchor="middle" x="863.43" y="-102.6" font-family="Times,serif" font-size="14.00">dekont_cevap == 'Evet'?</text>
</g>
<!-- OKU_DEKONT&#45;&gt;DEKONT_EVET -->
<g id="edge30" class="edge">
<title>OKU_DEKONT-&gt;DEKONT_EVET</title>
<path fill="none" stroke="black" d="M985.06,-161.32C957.08,-149.01 927.8,-136.13 904.98,-126.08"/>
<polygon fill="black" stroke="black" points="906.61,-122.98 896.04,-122.15 903.79,-129.38 906.61,-122.98"/>
</g>
<!-- YAZ_PARA_AL -->
<g id="node8" class="node">
<title>YAZ_PARA_AL</title>
<polygon fill="yellow" stroke="black" points="1269.63,-318 971.83,-318 895.23,-282 1193.02,-282 1269.63,-318"/>
<text xml:space="preserve" text-anchor="middle" x="1082.43" y="-295.8" font-family="Times,serif" font-size="14.00">YAZ: Lütfen paranızı alınız</text>
</g>
<!-- YAZ_PARA_AL&#45;&gt;OKU_DEKONT -->
<g id="edge29" class="edge">
<title>YAZ_PARA_AL-&gt;OKU_DEKONT</title>
<path fill="none" stroke="black" d="M1081.69,-281.65C1081.39,-274.45 1081.02,-265.67 1080.64,-256.66"/>
<polygon fill="black" stroke="black" points="1084.14,-256.56 1080.22,-246.72 1077.14,-256.86 1084.14,-256.56"/>
</g>
<!-- YAZ_DEKONT -->
<g id="node9" class="node">
<title>YAZ_DEKONT</title>
<polygon fill="yellow" stroke="black" points="849.51,-36 556.67,-36 481.34,0 774.18,0 849.51,-36"/>
<text xml:space="preserve" text-anchor="middle" x="665.43" y="-13.8" font-family="Times,serif" font-size="14.00">YAZ: Dekont yazdırılıyor...</text>
</g>
<!-- YAZ_DEKONT&#45;&gt;OKU_SECIM -->
<g id="edge32" class="edge">
<title>YAZ_DEKONT-&gt;OKU_SECIM</title>
<path fill="none" stroke="black" d="M660.28,-36.45C655.6,-53.85 649.43,-81.44 649.43,-105.8 649.43,-924.6 649.43,-924.6 649.43,-924.6 649.43,-934.38 677.93,-1039.84 683.43,-1046 697.22,-1061.46 708.56,-1053.52 726.43,-1064 758.27,-1082.68 790.88,-1107.62 817.1,-1129.37"/>
<polygon fill="black" stroke="black" points="814.66,-1131.89 824.57,-1135.63 819.16,-1126.52 814.66,-1131.89"/>
</g>
<!-- YAZ_KART_AL -->
<g id="node10" class="node">
<title>YAZ_KART_AL</title>
<polygon fill="yellow" stroke="black" points="495.22,-994.4 250.57,-994.4 187.63,-958.4 432.29,-958.4 495.22,-994.4"/>
<text xml:space="preserve" text-anchor="middle" x="341.43" y="-972.2" font-family="Times,serif" font-size="14.00">YAZ: Kartınızı alınız</text>
</g>
<!-- YAZ_KART_AL&#45;&gt;BITIS -->
<g id="edge5" class="edge">
<title>YAZ_KART_AL-&gt;BITIS</title>
<path fill="none" stroke="black" d="M324.58,-958.29C307.73,-941.17 281.66,-914.69 262.8,-895.54"/>
<polygon fill="black" stroke="black" points="265.53,-893.32 256.02,-888.65 260.54,-898.23 265.53,-893.32"/>
</g>
<!-- YAZ_BAKIYE -->
<g id="node11" class="node">
<title>YAZ_BAKIYE</title>
<polygon fill="yellow" stroke="black" points="621.51,-888.8 384.35,-888.8 323.35,-852.8 560.5,-852.8 621.51,-888.8"/>
<text xml:space="preserve" text-anchor="middle" x="472.43" y="-866.6" font-family="Times,serif" font-size="14.00">YAZ: Hesap Bakiyeniz</text>
</g>
<!-- YAZ_BAKIYE&#45;&gt;OKU_SECIM -->
<g id="edge18" class="edge">
<title>YAZ_BAKIYE-&gt;OKU_SECIM</title>
<path fill="none" stroke="black" d="M479.4,-889.22C486.23,-906.59 496.7,-934.11 504.43,-958.4 524.18,-1020.49 495.65,-1054.63 542.43,-1100 570.89,-1127.61 660.99,-1147.69 739.72,-1160.5"/>
<polygon fill="black" stroke="black" points="738.82,-1163.91 749.25,-1162.03 739.92,-1156.99 738.82,-1163.91"/>
</g>
<!-- INIT&#45;&gt;OKU_KART -->
<g id="edge2" class="edge">
<title>INIT-&gt;OKU_KART</title>
<path fill="none" stroke="black" d="M279.43,-1816.42C279.43,-1809.05 279.43,-1800.34 279.43,-1791.48"/>
<polygon fill="black" stroke="black" points="282.93,-1791.76 279.43,-1781.76 275.93,-1791.76 282.93,-1791.76"/>
</g>
<!-- PIN_AZALT -->
<g id="node13" class="node">
<title>PIN_AZALT</title>
<polygon fill="lightblue" stroke="black" points="233.2,-1314.6 117.66,-1314.6 117.66,-1273 233.2,-1273 233.2,-1314.6"/>
<text xml:space="preserve" text-anchor="middle" x="175.43" y="-1298" font-family="Times,serif" font-size="14.00">pin_hakkı--</text>
<text xml:space="preserve" text-anchor="middle" x="175.43" y="-1281.2" font-family="Times,serif" font-size="14.00">YAZ: Hatalı PIN</text>
</g>
<!-- HAK_KALDI_MI -->
<g id="node17" class="node">
<title>HAK_KALDI_MI</title>
<polygon fill="orange" stroke="black" points="159.43,-1196.6 51.04,-1178.6 159.43,-1160.6 267.81,-1178.6 159.43,-1196.6"/>
<text xml:space="preserve" text-anchor="middle" x="159.43" y="-1174.4" font-family="Times,serif" font-size="14.00">pin_hakkı == 0?</text>
</g>
<!-- PIN_AZALT&#45;&gt;HAK_KALDI_MI -->
<g id="edge10" class="edge">
<title>PIN_AZALT-&gt;HAK_KALDI_MI</title>
<path fill="none" stroke="black" d="M172.57,-1272.56C170.02,-1254.57 166.28,-1228.08 163.44,-1207.98"/>
<polygon fill="black" stroke="black" points="166.92,-1207.61 162.06,-1198.2 159.99,-1208.59 166.92,-1207.61"/>
</g>
<!-- HESAP_DUSUR -->
<g id="node14" class="node">
<title>HESAP_DUSUR</title>
<polygon fill="lightblue" stroke="black" points="1190.14,-396.6 992.71,-396.6 992.71,-355 1190.14,-355 1190.14,-396.6"/>
<text xml:space="preserve" text-anchor="middle" x="1091.43" y="-380" font-family="Times,serif" font-size="14.00">hesap_bakiyesi -= tutar</text>
<text xml:space="preserve" text-anchor="middle" x="1091.43" y="-363.2" font-family="Times,serif" font-size="14.00">günlük_çekilen_toplam += tutar</text>
</g>
<!-- HESAP_DUSUR&#45;&gt;YAZ_PARA_AL -->
<g id="edge28" class="edge">
<title>HESAP_DUSUR-&gt;YAZ_PARA_AL</title>
<path fill="none" stroke="black" d="M1088.97,-354.63C1088.02,-346.86 1086.92,-337.83 1085.89,-329.42"/>
<polygon fill="black" stroke="black" points="1089.39,-329.15 1084.7,-319.64 1082.44,-329.99 1089.39,-329.15"/>
</g>
<!-- KART_TAKILI_MI&#45;&gt;OKU_PIN -->
<g id="edge6" class="edge">
<title>KART_TAKILI_MI-&gt;OKU_PIN</title>
<path fill="none" stroke="black" d="M257.39,-1585.92C246.28,-1570.25 232.54,-1550.86 219.98,-1533.15"/>
<polygon fill="black" stroke="black" points="223.06,-1531.44 214.42,-1525.3 217.35,-1535.49 223.06,-1531.44"/>
<text xml:space="preserve" text-anchor="middle" x="250.44" y="-1545.8" font-family="Times,serif" font-size="14.00">Evet</text>
</g>
<!-- KART_TAKILI_MI&#45;&gt;YAZ_KART_AL -->
<g id="edge4" class="edge">
<title>KART_TAKILI_MI-&gt;YAZ_KART_AL</title>
<path fill="none" stroke="black" d="M313.27,-1590.88C340.91,-1566.35 375.43,-1526.93 375.43,-1483 375.43,-1483 375.43,-1483 375.43,-1081 375.43,-1054.2 365.03,-1025.36 355.74,-1004.93"/>
<polygon fill="black" stroke="black" points="359.02,-1003.68 351.55,-996.16 352.7,-1006.69 359.02,-1003.68"/>
<text xml:space="preserve" text-anchor="middle" x="392.92" y="-1289.6" font-family="Times,serif" font-size="14.00">Hayır</text>
</g>
<!-- PIN_DOGRU_MU&#45;&gt;PIN_AZALT -->
<g id="edge9" class="edge">
<title>PIN_DOGRU_MU-&gt;PIN_AZALT</title>
<path fill="none" stroke="black" d="M182.69,-1367.12C181.53,-1355.56 179.97,-1340 178.59,-1326.28"/>
<polygon fill="black" stroke="black" points="182.07,-1325.94 177.59,-1316.34 175.11,-1326.64 182.07,-1325.94"/>
<text xml:space="preserve" text-anchor="middle" x="198.23" y="-1336.8" font-family="Times,serif" font-size="14.00">Hayır</text>
</g>
<!-- ANA_ISLEM_DONGUSU_BASLANGIC -->
<g id="node25" class="node">
<title>ANA_ISLEM_DONGUSU_BASLANGIC</title>
<polygon fill="white" stroke="black" points="690.43,-1311.8 636.43,-1311.8 636.43,-1275.8 690.43,-1275.8 690.43,-1311.8"/>
</g>
<!-- PIN_DOGRU_MU&#45;&gt;ANA_ISLEM_DONGUSU_BASLANGIC -->
<g id="edge8" class="edge">
<title>PIN_DOGRU_MU-&gt;ANA_ISLEM_DONGUSU_BASLANGIC</title>
<path fill="none" stroke="black" d="M243.16,-1373.41C342.55,-1354.82 541.25,-1317.65 624.9,-1302.01"/>
<polygon fill="black" stroke="black" points="625.48,-1305.46 634.66,-1300.18 624.19,-1298.58 625.48,-1305.46"/>
<text xml:space="preserve" text-anchor="middle" x="465.43" y="-1336.8" font-family="Times,serif" font-size="14.00">Evet</text>
</g>
<!-- HAK_KALDI_MI&#45;&gt;BITIS -->
<g id="edge11" class="edge">
<title>HAK_KALDI_MI-&gt;BITIS</title>
<path fill="none" stroke="black" d="M157.96,-1160.46C155.34,-1122.65 152.36,-1029.8 178.43,-958.4 186.94,-935.08 203.44,-912.27 217.13,-895.92"/>
<polygon fill="black" stroke="black" points="219.5,-898.54 223.39,-888.68 214.2,-893.96 219.5,-898.54"/>
<text xml:space="preserve" text-anchor="middle" x="185.55" y="-1033.4" font-family="Times,serif" font-size="14.00">Evet</text>
<text xml:space="preserve" text-anchor="middle" x="185.55" y="-1016.6" font-family="Times,serif" font-size="14.00">(Bloke)</text>
</g>
<!-- HAK_KALDI_MI&#45;&gt;OKU_PIN -->
<g id="edge12" class="edge">
<title>HAK_KALDI_MI-&gt;OKU_PIN</title>
<path fill="none" stroke="black" d="M137.71,-1193.43C85.48,-1228.46 -39.15,-1323.54 12.43,-1403.4 23.6,-1420.7 39.66,-1434.18 57.52,-1444.68"/>
<polygon fill="black" stroke="black" points="55.84,-1447.74 66.29,-1449.48 59.2,-1441.6 55.84,-1447.74"/>
<text xml:space="preserve" text-anchor="middle" x="22.92" y="-1336.8" font-family="Times,serif" font-size="14.00">Hayır</text>
</g>
<!-- SECIM_CIKIS_MI&#45;&gt;YAZ_KART_AL -->
<g id="edge15" class="edge">
<title>SECIM_CIKIS_MI-&gt;YAZ_KART_AL</title>
<path fill="none" stroke="black" d="M603.9,-1070.21C556.2,-1053.34 463.08,-1020.42 401.57,-998.66"/>
<polygon fill="black" stroke="black" points="402.87,-995.41 392.27,-995.38 400.53,-1002.01 402.87,-995.41"/>
<text xml:space="preserve" text-anchor="middle" x="544.12" y="-1025" font-family="Times,serif" font-size="14.00">Evet</text>
</g>
<!-- SECIM_BAKIYE_MI -->
<g id="node19" class="node">
<title>SECIM_BAKIYE_MI</title>
<polygon fill="orange" stroke="black" points="760.43,-994.4 677.84,-976.4 760.43,-958.4 843.01,-976.4 760.43,-994.4"/>
<text xml:space="preserve" text-anchor="middle" x="760.43" y="-972.2" font-family="Times,serif" font-size="14.00">secim == 2?</text>
</g>
<!-- SECIM_CIKIS_MI&#45;&gt;SECIM_BAKIYE_MI -->
<g id="edge16" class="edge">
<title>SECIM_CIKIS_MI-&gt;SECIM_BAKIYE_MI</title>
<path fill="none" stroke="black" d="M651.16,-1067.24C672.62,-1049.6 710.05,-1018.82 735.04,-998.28"/>
<polygon fill="black" stroke="black" points="736.96,-1001.23 742.46,-992.18 732.51,-995.82 736.96,-1001.23"/>
<text xml:space="preserve" text-anchor="middle" x="733.57" y="-1025" font-family="Times,serif" font-size="14.00">Hayır</text>
</g>
<!-- SECIM_BAKIYE_MI&#45;&gt;YAZ_BAKIYE -->
<g id="edge17" class="edge">
<title>SECIM_BAKIYE_MI-&gt;YAZ_BAKIYE</title>
<path fill="none" stroke="black" d="M730.15,-964.51C683.15,-947.6 591.76,-914.73 531.41,-893.02"/>
<polygon fill="black" stroke="black" points="532.91,-889.84 522.32,-889.75 530.54,-896.43 532.91,-889.84"/>
<text xml:space="preserve" text-anchor="middle" x="671.88" y="-919.4" font-family="Times,serif" font-size="14.00">Evet</text>
</g>
<!-- SECIM_PARA_CEKME_MI -->
<g id="node20" class="node">
<title>SECIM_PARA_CEKME_MI</title>
<polygon fill="orange" stroke="black" points="1045.43,-888.8 962.84,-870.8 1045.43,-852.8 1128.01,-870.8 1045.43,-888.8"/>
<text xml:space="preserve" text-anchor="middle" x="1045.43" y="-866.6" font-family="Times,serif" font-size="14.00">secim == 1?</text>
</g>
<!-- SECIM_BAKIYE_MI&#45;&gt;SECIM_PARA_CEKME_MI -->
<g id="edge19" class="edge">
<title>SECIM_BAKIYE_MI-&gt;SECIM_PARA_CEKME_MI</title>
<path fill="none" stroke="black" d="M790.39,-964.51C841.81,-945.82 946.91,-907.61 1004.85,-886.55"/>
<polygon fill="black" stroke="black" points="1005.81,-889.92 1014.02,-883.22 1003.42,-883.34 1005.81,-889.92"/>
<text xml:space="preserve" text-anchor="middle" x="962.6" y="-919.4" font-family="Times,serif" font-size="14.00">Hayır</text>
</g>
<!-- SECIM_PARA_CEKME_MI&#45;&gt;OKU_TUTAR -->
<g id="edge20" class="edge">
<title>SECIM_PARA_CEKME_MI-&gt;OKU_TUTAR</title>
<path fill="none" stroke="black" d="M1048.43,-853.17C1051.13,-838.27 1055.23,-815.6 1059.01,-794.66"/>
<polygon fill="black" stroke="black" points="1062.41,-795.55 1060.75,-785.08 1055.52,-794.3 1062.41,-795.55"/>
<text xml:space="preserve" text-anchor="middle" x="1070.44" y="-813.8" font-family="Times,serif" font-size="14.00">Evet</text>
</g>
<!-- SECIM_PARA_CEKME_MI&#45;&gt;OKU_SECIM -->
<g id="edge34" class="edge">
<title>SECIM_PARA_CEKME_MI-&gt;OKU_SECIM</title>
<path fill="none" stroke="black" d="M1039.23,-887.93C1023.26,-928.58 978.05,-1037.79 923.43,-1119 921.42,-1121.99 919.26,-1124.99 917.02,-1127.96"/>
<polygon fill="black" stroke="black" points="914.45,-1125.57 911.01,-1135.59 919.95,-1129.9 914.45,-1125.57"/>
<text xml:space="preserve" text-anchor="middle" x="1013.31" y="-1033.4" font-family="Times,serif" font-size="14.00">Hayır</text>
<text xml:space="preserve" text-anchor="middle" x="1013.31" y="-1016.6" font-family="Times,serif" font-size="14.00">(Geçersiz)</text>
</g>
<!-- TUTAR_20_KATI&#45;&gt;OKU_SECIM -->
<g id="edge22" class="edge">
<title>TUTAR_20_KATI-&gt;OKU_SECIM</title>
<path fill="none" stroke="black" d="M1148.05,-659.08C1182.87,-673.14 1227.43,-699.22 1227.43,-740.6 1227.43,-1083 1227.43,-1083 1227.43,-1083 1227.43,-1133.75 1090.59,-1157.93 986.58,-1168.99"/>
<polygon fill="black" stroke="black" points="986.45,-1165.48 976.86,-1169.99 987.17,-1172.44 986.45,-1165.48"/>
<text xml:space="preserve" text-anchor="middle" x="1245.3" y="-927.8" font-family="Times,serif" font-size="14.00">Evet</text>
<text xml:space="preserve" text-anchor="middle" x="1245.3" y="-911" font-family="Times,serif" font-size="14.00">(Hata)</text>
</g>
<!-- LIMIT_ASIMI -->
<g id="node22" class="node">
<title>LIMIT_ASIMI</title>
<polygon fill="orange" stroke="black" points="1106.43,-574.2 986.13,-556.2 1106.43,-538.2 1226.72,-556.2 1106.43,-574.2"/>
<text xml:space="preserve" text-anchor="middle" x="1106.43" y="-552" font-family="Times,serif" font-size="14.00">limit aşılıyor mu?</text>
</g>
<!-- TUTAR_20_KATI&#45;&gt;LIMIT_ASIMI -->
<g id="edge23" class="edge">
<title>TUTAR_20_KATI-&gt;LIMIT_ASIMI</title>
<path fill="none" stroke="black" d="M1107.23,-626.85C1107.09,-615.16 1106.91,-599.39 1106.76,-585.82"/>
<polygon fill="black" stroke="black" points="1110.26,-586.08 1106.65,-576.12 1103.26,-586.16 1110.26,-586.08"/>
<text xml:space="preserve" text-anchor="middle" x="1124.51" y="-596.4" font-family="Times,serif" font-size="14.00">Hayır</text>
</g>
<!-- LIMIT_ASIMI&#45;&gt;OKU_SECIM -->
<g id="edge24" class="edge">
<title>LIMIT_ASIMI-&gt;OKU_SECIM</title>
<path fill="none" stroke="black" d="M1051.03,-566.32C1011.99,-575.44 961.05,-593.21 928.43,-627 910.76,-645.31 909.43,-655.56 909.43,-681 909.43,-1083 909.43,-1083 909.43,-1083 909.43,-1097.52 905.52,-1112.46 900.22,-1126.05"/>
<polygon fill="black" stroke="black" points="897,-1124.66 896.3,-1135.23 903.44,-1127.4 897,-1124.66"/>
<text xml:space="preserve" text-anchor="middle" x="927.3" y="-875" font-family="Times,serif" font-size="14.00">Evet</text>
<text xml:space="preserve" text-anchor="middle" x="927.3" y="-858.2" font-family="Times,serif" font-size="14.00">(Hata)</text>
</g>
<!-- BAKIYE_YETERLI -->
<g id="node23" class="node">
<title>BAKIYE_YETERLI</title>
<polygon fill="orange" stroke="black" points="1106.43,-485.4 955.58,-467.4 1106.43,-449.4 1257.27,-467.4 1106.43,-485.4"/>
<text xml:space="preserve" text-anchor="middle" x="1106.43" y="-463.2" font-family="Times,serif" font-size="14.00">istenen_tutar &lt;= bakiye?</text>
</g>
<!-- LIMIT_ASIMI&#45;&gt;BAKIYE_YETERLI -->
<g id="edge25" class="edge">
<title>LIMIT_ASIMI-&gt;BAKIYE_YETERLI</title>
<path fill="none" stroke="black" d="M1106.43,-538.05C1106.43,-526.36 1106.43,-510.59 1106.43,-497.02"/>
<polygon fill="black" stroke="black" points="1109.93,-497.32 1106.43,-487.32 1102.93,-497.32 1109.93,-497.32"/>
<text xml:space="preserve" text-anchor="middle" x="1123.92" y="-507.6" font-family="Times,serif" font-size="14.00">Hayır</text>
</g>
<!-- BAKIYE_YETERLI&#45;&gt;OKU_SECIM -->
<g id="edge26" class="edge">
<title>BAKIYE_YETERLI-&gt;OKU_SECIM</title>
<path fill="none" stroke="black" d="M1200.68,-474.64C1252.12,-483.76 1305.43,-505.26 1305.43,-555.2 1305.43,-1083 1305.43,-1083 1305.43,-1083 1305.43,-1147.7 1118.94,-1168.23 990.46,-1174.69"/>
<polygon fill="black" stroke="black" points="990.32,-1171.19 980.5,-1175.17 990.65,-1178.19 990.32,-1171.19"/>
<text xml:space="preserve" text-anchor="middle" x="1323.3" y="-822.2" font-family="Times,serif" font-size="14.00">Hayır</text>
<text xml:space="preserve" text-anchor="middle" x="1323.3" y="-805.4" font-family="Times,serif" font-size="14.00">(Hata)</text>
</g>
<!-- BAKIYE_YETERLI&#45;&gt;HESAP_DUSUR -->
<g id="edge27" class="edge">
<title>BAKIYE_YETERLI-&gt;HESAP_DUSUR</title>
<path fill="none" stroke="black" d="M1103.61,-449.55C1101.66,-437.9 1099.01,-422.07 1096.67,-408.14"/>
<polygon fill="black" stroke="black" points="1100.17,-407.81 1095.06,-398.52 1093.26,-408.96 1100.17,-407.81"/>
<text xml:space="preserve" text-anchor="middle" x="1113.1" y="-418.8" font-family="Times,serif" font-size="14.00">Evet</text>
</g>
<!-- DEKONT_EVET&#45;&gt;OKU_SECIM -->
<g id="edge33" class="edge">
<title>DEKONT_EVET-&gt;OKU_SECIM</title>
<path fill="none" stroke="black" d="M863.43,-125.24C863.43,-144.22 863.43,-175.47 863.43,-202.4 863.43,-819 863.43,-819 863.43,-819 863.43,-928.13 867.18,-1055.89 869.54,-1125.64"/>
<polygon fill="black" stroke="black" points="866.03,-1125.35 869.87,-1135.22 873.02,-1125.11 866.03,-1125.35"/>
<text xml:space="preserve" text-anchor="middle" x="880.92" y="-596.4" font-family="Times,serif" font-size="14.00">Hayır</text>
</g>
<!-- DEKONT_EVET&#45;&gt;YAZ_DEKONT -->
<g id="edge31" class="edge">
<title>DEKONT_EVET-&gt;YAZ_DEKONT</title>
<path fill="none" stroke="black" d="M832.49,-92.24C801.21,-78.52 752.35,-57.11 715.54,-40.97"/>
<polygon fill="black" stroke="black" points="716.97,-37.77 706.41,-36.96 714.16,-44.18 716.97,-37.77"/>
<text xml:space="preserve" text-anchor="middle" x="794.99" y="-58.2" font-family="Times,serif" font-size="14.00">Evet</text>
</g>
<!-- ANA_ISLEM_DONGUSU_BASLANGIC&#45;&gt;OKU_SECIM -->
<g id="edge13" class="edge">
<title>ANA_ISLEM_DONGUSU_BASLANGIC-&gt;OKU_SECIM</title>
<path fill="none" stroke="black" d="M690.62,-1278C714.97,-1264.75 752.03,-1244.58 786.26,-1225.95"/>
<polygon fill="black" stroke="black" points="787.86,-1229.06 794.97,-1221.21 784.52,-1222.91 787.86,-1229.06"/>
<text xml:space="preserve" text-anchor="middle" x="792.11" y="-1242.4" font-family="Times,serif" font-size="14.00">PIN Doğru</text>
</g>
</g>
</svg>