<svg xmlns="http://www.w3.org/2000/svg" xmlns:xlink="http://www.w3.org/1999/xlink" width="1622pt" height="2024pt" viewBox="0.00 0.00 1622.00 2024.00">
<g id="graph0" class="graph" transform="scale(1 1) rotate(0) translate(4 2019.8)">
<title>E_Ticaret_Sepet_Odeme</title>
<polygon fill="white" stroke="none" points="-4,4 -4,-2019.8 1617.78,-2019.8 1617.78,4 -4,4"/>
<!-- BASLA -->
<g id="node1" class="node">
<title>BASLA</title>
<ellipse fill="lightgreen" stroke="black" cx="922.85" cy="-1997.8" rx="41.1" ry="18"/>
<text xml:space="preserve" text-anchor="middle" x="922.85" y="-1993.6" font-family="Helvetica,sans-Serif" font-size="14.00">BAŞLA</text>
</g>
<!-- KULLANICI_OTURUM -->
<g id="node3" class="node">
<title>KULLANICI_OTURUM</title>
<polygon fill="yellow" stroke="black" points="1091.69,-1942.8 823.1,-1942.8 754.01,-1906.8 1022.59,-1906.8 1091.69,-1942.8"/>
<text xml:space="preserve" text-anchor="middle" x="922.85" y="-1920.6" font-family="Helvetica,sans-Serif" font-size="14.00">Kullanıcı Giriş Kontrolü</text>
</g>
<!-- BASLA&#45;&gt;KULLANICI_OTURUM -->
<g id="edge1" class="edge">
<title>BASLA-&gt;KULLANICI_OTURUM</title>
<path fill="none" stroke="black" d="M922.85,-1979.61C922.85,-1972.03 922.85,-1962.9 922.85,-1954.34"/>
<polygon fill="black" stroke="black" points="926.35,-1954.34 922.85,-1944.34 919.35,-1954.34 926.35,-1954.34"/>
</g>
<!-- BITIR -->
<g id="node2" class="node">
<title>BITIR</title>
<ellipse fill="lightgreen" stroke="black" cx="264.85" cy="-18" rx="41.08" ry="18"/>
<text xml:space="preserve" text-anchor="middle" x="264.85" y="-13.8" font-family="Helvetica,sans-Serif" font-size="14.00">BİTİR</text>
</g>
<!-- SEPET_OLUSTUR -->
<g id="node17" class="node">
<title>SEPET_OLUSTUR</title>
<polygon fill="lightblue" stroke="black" points="997.38,-1869.8 848.32,-1869.8 848.32,-1833.8 997.38,-1833.8 997.38,-1869.8"/>
<text xml:space="preserve" text-anchor="middle" x="922.85" y="-1847.6" font-family="Helvetica,sans-Serif" font-size="14.00">Sepet Yükle / Oluştur</text>
</g>
<!-- KULLANICI_OTURUM&#45;&gt;SEPET_OLUSTUR -->
<g id="edge2" class="edge">
<title>KULLANICI_OTURUM-&gt;SEPET_OLUSTUR</title>
<path fill="none" stroke="black" d="M922.85,-1906.61C922.85,-1899.03 922.85,-1889.9 922.85,-1881.34"/>
<polygon fill="black" stroke="black" points="926.35,-1881.34 922.85,-1871.34 919.35,-1881.34 926.35,-1881.34"/>
</g>
<!-- OKU_URUN -->
<g id="node4" class="node">
<title>OKU_URUN</title>
<polygon fill="yellow" stroke="black" points="1158.6,-1781 783.57,-1781 687.1,-1745 1062.12,-1745 1158.6,-1781"/>
<text xml:space="preserve" text-anchor="middle" x="922.85" y="-1758.8" font-family="Helvetica,sans-Serif" font-size="14.00">OKU: seçilen_urun, istenen_miktar</text>
</g>
<!-- STOK_YETERLI_MI -->
<g id="node25" class="node">
<title>STOK_YETERLI_MI</title>
<polygon fill="orange" stroke="black" points="733.85,-1708 573.25,-1690 733.85,-1672 894.45,-1690 733.85,-1708"/>
<text xml:space="preserve" text-anchor="middle" x="733.85" y="-1685.8" font-family="Helvetica,sans-Serif" font-size="14.00">istenen_miktar &lt;= stok?</text>
</g>
<!-- OKU_URUN&#45;&gt;STOK_YETERLI_MI -->
<g id="edge4" class="edge">
<title>OKU_URUN-&gt;STOK_YETERLI_MI</title>
<path fill="none" stroke="black" d="M876.61,-1744.63C847.22,-1733.59 809.31,-1719.35 779.94,-1708.32"/>
<polygon fill="black" stroke="black" points="781.55,-1705.18 770.96,-1704.94 779.09,-1711.73 781.55,-1705.18"/>
</g>
<!-- YAZ_EKLEME_HATA -->
<g id="node5" class="node">
<title>YAZ_EKLEME_HATA</title>
<polygon fill="yellow" stroke="black" points="671.48,-1616.4 460.49,-1616.4 406.21,-1580.4 617.2,-1580.4 671.48,-1616.4"/>
<text xml:space="preserve" text-anchor="middle" x="538.85" y="-1594.2" font-family="Helvetica,sans-Serif" font-size="14.00">YAZ: Stok yetersiz</text>
</g>
<!-- OKU_DEVAM -->
<g id="node6" class="node">
<title>OKU_DEVAM</title>
<polygon fill="yellow" stroke="black" points="894.6,-1540.6 502.07,-1540.6 401.09,-1504.6 793.62,-1504.6 894.6,-1540.6"/>
<text xml:space="preserve" text-anchor="middle" x="647.85" y="-1518.4" font-family="Helvetica,sans-Serif" font-size="14.00">OKU: devam_et (Sepet Güncelleme)</text>
</g>
<!-- YAZ_EKLEME_HATA&#45;&gt;OKU_DEVAM -->
<g id="edge6" class="edge">
<title>YAZ_EKLEME_HATA-&gt;OKU_DEVAM</title>
<path fill="none" stroke="black" d="M564.68,-1579.91C579.07,-1570.17 597.18,-1557.9 612.83,-1547.31"/>
<polygon fill="black" stroke="black" points="614.63,-1550.32 620.95,-1541.81 610.71,-1544.52 614.63,-1550.32"/>
</g>
<!-- KULLANICI_DEVAM -->
<g id="node24" class="node">
<title>KULLANICI_DEVAM</title>
<polygon fill="orange" stroke="black" points="648.85,-1467.6 339.49,-1449.6 648.85,-1431.6 958.21,-1449.6 648.85,-1467.6"/>
<text xml:space="preserve" text-anchor="middle" x="648.85" y="-1445.4" font-family="Helvetica,sans-Serif" font-size="14.00">Kullanıcı Sepet Düzenlemeye Devam Etsin mi?</text>
</g>
<!-- OKU_DEVAM&#45;&gt;KULLANICI_DEVAM -->
<g id="edge9" class="edge">
<title>OKU_DEVAM-&gt;KULLANICI_DEVAM</title>
<path fill="none" stroke="black" d="M648.09,-1504.41C648.2,-1496.83 648.33,-1487.7 648.45,-1479.14"/>
<polygon fill="black" stroke="black" points="651.95,-1479.19 648.59,-1469.14 644.95,-1479.09 651.95,-1479.19"/>
</g>
<!-- OKU_INDIRIM_TERCIH -->
<g id="node7" class="node">
<title>OKU_INDIRIM_TERCIH</title>
<polygon fill="yellow" stroke="black" points="748.92,-1290 522.92,-1290 464.78,-1254 690.78,-1254 748.92,-1290"/>
<text xml:space="preserve" text-anchor="middle" x="606.85" y="-1267.8" font-family="Helvetica,sans-Serif" font-size="14.00">OKU: indirim_tercihi</text>
</g>
<!-- OKU_INDIRIM_KODU -->
<g id="node8" class="node">
<title>OKU_INDIRIM_KODU</title>
<polygon fill="yellow" stroke="black" points="732.85,-1201.2 518.09,-1201.2 462.84,-1165.2 677.61,-1165.2 732.85,-1201.2"/>
<text xml:space="preserve" text-anchor="middle" x="597.85" y="-1179" font-family="Helvetica,sans-Serif" font-size="14.00">OKU: indirim_kodu</text>
</g>
<!-- OKU_INDIRIM_TERCIH&#45;&gt;OKU_INDIRIM_KODU -->
<g id="edge13" class="edge">
<title>OKU_INDIRIM_TERCIH-&gt;OKU_INDIRIM_KODU</title>
<path fill="none" stroke="black" d="M605.07,-1253.85C603.86,-1242.16 602.22,-1226.39 600.81,-1212.82"/>
<polygon fill="black" stroke="black" points="604.32,-1212.7 599.81,-1203.12 597.36,-1213.42 604.32,-1212.7"/>
</g>
<!-- KOD_GECERLI_MI -->
<g id="node27" class="node">
<title>KOD_GECERLI_MI</title>
<polygon fill="orange" stroke="black" points="594.85,-1112.4 380.37,-1094.4 594.85,-1076.4 809.33,-1094.4 594.85,-1112.4"/>
<text xml:space="preserve" text-anchor="middle" x="594.85" y="-1090.2" font-family="Helvetica,sans-Serif" font-size="14.00">Kod Geçerli ve Uygulanabilir mi?</text>
</g>
<!-- OKU_INDIRIM_KODU&#45;&gt;KOD_GECERLI_MI -->
<g id="edge14" class="edge">
<title>OKU_INDIRIM_KODU-&gt;KOD_GECERLI_MI</title>
<path fill="none" stroke="black" d="M597.25,-1165.05C596.85,-1153.36 596.31,-1137.59 595.84,-1124.02"/>
<polygon fill="black" stroke="black" points="599.35,-1124.2 595.5,-1114.32 592.35,-1124.44 599.35,-1124.2"/>
</g>
<!-- YAZ_INDIRIM_HATA -->
<g id="node9" class="node">
<title>YAZ_INDIRIM_HATA</title>
<polygon fill="yellow" stroke="black" points="605.35,-1020.8 305.49,-1020.8 228.35,-984.8 528.21,-984.8 605.35,-1020.8"/>
<text xml:space="preserve" text-anchor="middle" x="416.85" y="-998.6" font-family="Helvetica,sans-Serif" font-size="14.00">YAZ: Geçersiz indirim kodu</text>
</g>
<!-- OKU_ADRES -->
<g id="node10" class="node">
<title>OKU_ADRES</title>
<polygon fill="yellow" stroke="black" points="865.8,-945 627.26,-945 565.9,-909 804.44,-909 865.8,-945"/>
<text xml:space="preserve" text-anchor="middle" x="715.85" y="-922.8" font-family="Helvetica,sans-Serif" font-size="14.00">OKU: teslimat_adresi</text>
</g>
<!-- YAZ_INDIRIM_HATA&#45;&gt;OKU_ADRES -->
<g id="edge18" class="edge">
<title>YAZ_INDIRIM_HATA-&gt;OKU_ADRES</title>
<path fill="none" stroke="black" d="M487.71,-984.31C531.58,-973.48 588.08,-959.53 633.88,-948.23"/>
<polygon fill="black" stroke="black" points="634.64,-951.65 643.51,-945.85 632.96,-944.85 634.64,-951.65"/>
</g>
<!-- HESAPLA_KARGO -->
<g id="node20" class="node">
<title>HESAPLA_KARGO</title>
<polygon fill="lightblue" stroke="black" points="789.21,-872 642.48,-872 642.48,-830.4 789.21,-830.4 789.21,-872"/>
<text xml:space="preserve" text-anchor="middle" x="715.85" y="-855.4" font-family="Helvetica,sans-Serif" font-size="14.00">Kargo Ücreti Hesapla</text>
<text xml:space="preserve" text-anchor="middle" x="715.85" y="-838.6" font-family="Helvetica,sans-Serif" font-size="14.00">Nihai Tutarı Belirle</text>
</g>
<!-- OKU_ADRES&#45;&gt;HESAPLA_KARGO -->
<g id="edge20" class="edge">
<title>OKU_ADRES-&gt;HESAPLA_KARGO</title>
<path fill="none" stroke="black" d="M715.85,-908.51C715.85,-901.15 715.85,-892.35 715.85,-883.92"/>
<polygon fill="black" stroke="black" points="719.35,-883.95 715.85,-873.95 712.35,-883.95 719.35,-883.95"/>
</g>
<!-- OKU_ODEME_YONTEMI -->
<g id="node11" class="node">
<title>OKU_ODEME_YONTEMI</title>
<polygon fill="yellow" stroke="black" points="788.32,-527 541,-527 477.37,-491 724.7,-491 788.32,-527"/>
<text xml:space="preserve" text-anchor="middle" x="632.85" y="-504.8" font-family="Helvetica,sans-Serif" font-size="14.00">OKU: odeme_yontemi</text>
</g>
<!-- KART_ODEME_MI -->
<g id="node30" class="node">
<title>KART_ODEME_MI</title>
<polygon fill="orange" stroke="black" points="495.85,-454 325.4,-436 495.85,-418 666.29,-436 495.85,-454"/>
<text xml:space="preserve" text-anchor="middle" x="495.85" y="-431.8" font-family="Helvetica,sans-Serif" font-size="14.00">Ödeme Yöntemi Kart mı?</text>
</g>
<!-- OKU_ODEME_YONTEMI&#45;&gt;KART_ODEME_MI -->
<g id="edge27" class="edge">
<title>OKU_ODEME_YONTEMI-&gt;KART_ODEME_MI</title>
<path fill="none" stroke="black" d="M599.33,-490.63C579.41,-480.31 554.09,-467.18 533.48,-456.5"/>
<polygon fill="black" stroke="black" points="535.32,-453.51 524.83,-452.02 532.1,-459.73 535.32,-453.51"/>
</g>
<!-- OKU_KART_BILGI -->
<g id="node12" class="node">
<title>OKU_KART_BILGI</title>
<polygon fill="yellow" stroke="black" points="626.12,-365.2 418.88,-365.2 365.57,-329.2 572.81,-329.2 626.12,-365.2"/>
<text xml:space="preserve" text-anchor="middle" x="495.85" y="-343" font-family="Helvetica,sans-Serif" font-size="14.00">OKU: kart_bilgileri</text>
</g>
<!-- ODEME_AG_GECIDI_ONAY -->
<g id="node31" class="node">
<title>ODEME_AG_GECIDI_ONAY</title>
<polygon fill="orange" stroke="black" points="495.85,-276.4 248.73,-258.4 495.85,-240.4 742.96,-258.4 495.85,-276.4"/>
<text xml:space="preserve" text-anchor="middle" x="495.85" y="-254.2" font-family="Helvetica,sans-Serif" font-size="14.00">Ödeme Ağ Geçidinden ONAY var mı?</text>
</g>
<!-- OKU_KART_BILGI&#45;&gt;ODEME_AG_GECIDI_ONAY -->
<g id="edge29" class="edge">
<title>OKU_KART_BILGI-&gt;ODEME_AG_GECIDI_ONAY</title>
<path fill="none" stroke="black" d="M495.85,-329.05C495.85,-317.36 495.85,-301.59 495.85,-288.02"/>
<polygon fill="black" stroke="black" points="499.35,-288.32 495.85,-278.32 492.35,-288.32 499.35,-288.32"/>
</g>
<!-- YAZ_ODEME_HATA -->
<g id="node13" class="node">
<title>YAZ_ODEME_HATA</title>
<polygon fill="yellow" stroke="black" points="1000.56,-184.8 566.73,-184.8 455.13,-148.8 888.96,-148.8 1000.56,-184.8"/>
<text xml:space="preserve" text-anchor="middle" x="727.85" y="-162.6" font-family="Helvetica,sans-Serif" font-size="14.00">YAZ: Ödeme Başarısız. Tekrar deneyin.</text>
</g>
<!-- YAZ_ODEME_HATA&#45;&gt;OKU_ODEME_YONTEMI -->
<g id="edge32" class="edge">
<title>YAZ_ODEME_HATA-&gt;OKU_ODEME_YONTEMI</title>
<path fill="none" stroke="black" d="M741.93,-185.15C754.47,-202.4 770.85,-230.14 770.85,-257.4 770.85,-437 770.85,-437 770.85,-437 770.85,-459.92 755.61,-475.45 735.25,-485.97"/>
<polygon fill="black" stroke="black" points="733.89,-482.74 726.27,-490.11 736.82,-489.1 733.89,-482.74"/>
</g>
<!-- YAZ_SIPARIS_ONAY -->
<g id="node14" class="node">
<title>YAZ_SIPARIS_ONAY</title>
<polygon fill="yellow" stroke="black" points="529.7,-109 108.38,-109 0,-73 421.31,-73 529.7,-109"/>
<text xml:space="preserve" text-anchor="middle" x="264.85" y="-86.8" font-family="Helvetica,sans-Serif" font-size="14.00">YAZ: Siparişiniz başarıyla tamamlandı</text>
</g>
<!-- YAZ_SIPARIS_ONAY&#45;&gt;BITIR -->
<g id="edge35" class="edge">
<title>YAZ_SIPARIS_ONAY-&gt;BITIR</title>
<path fill="none" stroke="black" d="M264.85,-72.81C264.85,-65.23 264.85,-56.1 264.85,-47.54"/>
<polygon fill="black" stroke="black" points="268.35,-47.54 264.85,-37.54 261.35,-47.54 268.35,-47.54"/>
</g>
<!-- YAZ_IPTAL -->
<g id="node15" class="node">
<title>YAZ_IPTAL</title>
<polygon fill="yellow" stroke="black" points="1376.03,-2015.8 1062.36,-2015.8 981.67,-1979.8 1295.34,-1979.8 1376.03,-2015.8"/>
<text xml:space="preserve" text-anchor="middle" x="1178.85" y="-1993.6" font-family="Helvetica,sans-Serif" font-size="14.00">YAZ: Sipariş oluşturulamadı</text>
</g>
<!-- YAZ_SEPET_GUNCEL_HATA -->
<g id="node16" class="node">
<title>YAZ_SEPET_GUNCEL_HATA</title>
<polygon fill="yellow" stroke="black" points="1254.85,-704.6 828.52,-704.6 718.84,-668.6 1145.18,-668.6 1254.85,-704.6"/>
<text xml:space="preserve" text-anchor="middle" x="986.85" y="-682.4" font-family="Helvetica,sans-Serif" font-size="14.00">YAZ: Stok tükenmiş. Sepeti güncelleyin.</text>
</g>
<!-- YAZ_SEPET_GUNCEL_HATA&#45;&gt;OKU_URUN -->
<g id="edge24" class="edge">
<title>YAZ_SEPET_GUNCEL_HATA-&gt;OKU_URUN</title>
<path fill="none" stroke="black" d="M986.85,-704.89C986.85,-722.41 986.85,-750.29 986.85,-774.4 986.85,-1691 986.85,-1691 986.85,-1691 986.85,-1709.69 974.46,-1725.68 960.59,-1737.72"/>
<polygon fill="black" stroke="black" points="958.66,-1734.78 953.03,-1743.76 963.03,-1740.25 958.66,-1734.78"/>
<text xml:space="preserve" text-anchor="middle" x="1033.5" y="-1223.4" font-family="Times,serif" font-size="14.00">Sepete Geri Dön</text>
</g>
<!-- SEPET_OLUSTUR&#45;&gt;OKU_URUN -->
<g id="edge3" class="edge">
<title>SEPET_OLUSTUR-&gt;OKU_URUN</title>
<path fill="none" stroke="black" d="M922.85,-1833.65C922.85,-1821.96 922.85,-1806.19 922.85,-1792.62"/>
<polygon fill="black" stroke="black" points="926.35,-1792.92 922.85,-1782.92 919.35,-1792.92 926.35,-1792.92"/>
<text xml:space="preserve" text-anchor="middle" x="1007.21" y="-1803.2" font-family="Times,serif" font-size="14.00">Sepet Düzenleme Başlangıcı</text>
</g>
<!-- EKLE_URUN -->
<g id="node18" class="node">
<title>EKLE_URUN</title>
<polygon fill="lightblue" stroke="black" points="872.11,-1619.2 689.58,-1619.2 689.58,-1577.6 872.11,-1577.6 872.11,-1619.2"/>
<text xml:space="preserve" text-anchor="middle" x="780.85" y="-1602.6" font-family="Helvetica,sans-Serif" font-size="14.00">Ürün Sepete Ekle/Güncelle</text>
<text xml:space="preserve" text-anchor="middle" x="780.85" y="-1585.8" font-family="Helvetica,sans-Serif" font-size="14.00">Sepet Toplamını Hesapla</text>
</g>
<!-- EKLE_URUN&#45;&gt;OKU_DEVAM -->
<g id="edge8" class="edge">
<title>EKLE_URUN-&gt;OKU_DEVAM</title>
<path fill="none" stroke="black" d="M744.5,-1577.23C727.4,-1567.74 706.92,-1556.38 689.23,-1546.56"/>
<polygon fill="black" stroke="black" points="690.94,-1543.51 680.5,-1541.72 687.55,-1549.63 690.94,-1543.51"/>
</g>
<!-- HESAPLA_INDIRIM -->
<g id="node19" class="node">
<title>HESAPLA_INDIRIM</title>
<polygon fill="lightblue" stroke="black" points="808.67,-1023.6 623.03,-1023.6 623.03,-982 808.67,-982 808.67,-1023.6"/>
<text xml:space="preserve" text-anchor="middle" x="715.85" y="-1007" font-family="Helvetica,sans-Serif" font-size="14.00">İndirim Uygula</text>
<text xml:space="preserve" text-anchor="middle" x="715.85" y="-990.2" font-family="Helvetica,sans-Serif" font-size="14.00">Sepet Toplamını Güncelle</text>
</g>
<!-- HESAPLA_INDIRIM&#45;&gt;OKU_ADRES -->
<g id="edge16" class="edge">
<title>HESAPLA_INDIRIM-&gt;OKU_ADRES</title>
<path fill="none" stroke="black" d="M715.85,-981.63C715.85,-973.86 715.85,-964.83 715.85,-956.42"/>
<polygon fill="black" stroke="black" points="719.35,-956.65 715.85,-946.65 712.35,-956.65 719.35,-956.65"/>
</g>
<!-- STOKLAR_SON_KONTROL -->
<g id="node28" class="node">
<title>STOKLAR_SON_KONTROL</title>
<polygon fill="orange" stroke="black" points="715.85,-793.4 500.62,-775.4 715.85,-757.4 931.08,-775.4 715.85,-793.4"/>
<text xml:space="preserve" text-anchor="middle" x="715.85" y="-771.2" font-family="Helvetica,sans-Serif" font-size="14.00">Ödeme Öncesi Stoklar Yeterli mi?</text>
</g>
<!-- HESAPLA_KARGO&#45;&gt;STOKLAR_SON_KONTROL -->
<g id="edge21" class="edge">
<title>HESAPLA_KARGO-&gt;STOKLAR_SON_KONTROL</title>
<path fill="none" stroke="black" d="M715.85,-830.03C715.85,-822.26 715.85,-813.23 715.85,-804.82"/>
<polygon fill="black" stroke="black" points="719.35,-805.05 715.85,-795.05 712.35,-805.05 719.35,-805.05"/>
</g>
<!-- REZERV_ET -->
<g id="node21" class="node">
<title>REZERV_ET</title>
<polygon fill="lightblue" stroke="black" points="700.75,-704.6 564.94,-704.6 564.94,-668.6 700.75,-668.6 700.75,-704.6"/>
<text xml:space="preserve" text-anchor="middle" x="632.85" y="-682.4" font-family="Helvetica,sans-Serif" font-size="14.00">Ürünleri Rezerve Et</text>
</g>
<!-- ODEME_BASARILI_MI -->
<g id="node29" class="node">
<title>ODEME_BASARILI_MI</title>
<polygon fill="orange" stroke="black" points="632.85,-615.8 381.94,-597.8 632.85,-579.8 883.75,-597.8 632.85,-615.8"/>
<text xml:space="preserve" text-anchor="middle" x="632.85" y="-593.6" font-family="Helvetica,sans-Serif" font-size="14.00">Ödeme BAŞARILI mı? (Döngü Koşulu)</text>
</g>
<!-- REZERV_ET&#45;&gt;ODEME_BASARILI_MI -->
<g id="edge25" class="edge">
<title>REZERV_ET-&gt;ODEME_BASARILI_MI</title>
<path fill="none" stroke="black" d="M632.85,-668.45C632.85,-656.76 632.85,-640.99 632.85,-627.42"/>
<polygon fill="black" stroke="black" points="636.35,-627.72 632.85,-617.72 629.35,-627.72 636.35,-627.72"/>
<text xml:space="preserve" text-anchor="middle" x="679.69" y="-638" font-family="Times,serif" font-size="14.00">Ödeme Aşaması</text>
</g>
<!-- SIPARIS_OLUSTUR -->
<g id="node22" class="node">
<title>SIPARIS_OLUSTUR</title>
<polygon fill="lightblue" stroke="black" points="351.43,-187.6 178.26,-187.6 178.26,-146 351.43,-146 351.43,-187.6"/>
<text xml:space="preserve" text-anchor="middle" x="264.85" y="-171" font-family="Helvetica,sans-Serif" font-size="14.00">YENİ SİPARİŞ Oluştur</text>
<text xml:space="preserve" text-anchor="middle" x="264.85" y="-154.2" font-family="Helvetica,sans-Serif" font-size="14.00">Stokları Kalıcı Güncelle</text>
</g>
<!-- SIPARIS_OLUSTUR&#45;&gt;YAZ_SIPARIS_ONAY -->
<g id="edge34" class="edge">
<title>SIPARIS_OLUSTUR-&gt;YAZ_SIPARIS_ONAY</title>
<path fill="none" stroke="black" d="M264.85,-145.63C264.85,-137.86 264.85,-128.83 264.85,-120.42"/>
<polygon fill="black" stroke="black" points="268.35,-120.65 264.85,-110.65 261.35,-120.65 268.35,-120.65"/>
</g>
<!-- IPTAL_REZERVE -->
<g id="node23" class="node">
<title>IPTAL_REZERVE</title>
<polygon fill="lightblue" stroke="black" points="1613.78,-2015.8 1393.92,-2015.8 1393.92,-1979.8 1613.78,-1979.8 1613.78,-2015.8"/>
<text xml:space="preserve" text-anchor="middle" x="1503.85" y="-1993.6" font-family="Helvetica,sans-Serif" font-size="14.00">Ürün Rezervasyonlarını İptal Et</text>
</g>
<!-- KULLANICI_DEVAM&#45;&gt;OKU_URUN -->
<g id="edge10" class="edge">
<title>KULLANICI_DEVAM-&gt;OKU_URUN</title>
<path fill="none" stroke="black" d="M773.42,-1460.8C845.8,-1470.3 922.85,-1488.25 922.85,-1521.6 922.85,-1691 922.85,-1691 922.85,-1691 922.85,-1704.92 922.85,-1720.37 922.85,-1733.3"/>
<polygon fill="black" stroke="black" points="919.35,-1733.27 922.85,-1743.27 926.35,-1733.27 919.35,-1733.27"/>
<text xml:space="preserve" text-anchor="middle" x="940.73" y="-1594.2" font-family="Times,serif" font-size="14.00">EVET</text>
</g>
<!-- INDIRIM_KODU_VAR_MI -->
<g id="node26" class="node">
<title>INDIRIM_KODU_VAR_MI</title>
<polygon fill="orange" stroke="black" points="648.85,-1378.8 430.61,-1360.8 648.85,-1342.8 867.09,-1360.8 648.85,-1378.8"/>
<text xml:space="preserve" text-anchor="middle" x="648.85" y="-1356.6" font-family="Helvetica,sans-Serif" font-size="14.00">İndirim Kodu Girmek İstiyor mu?</text>
</g>
<!-- KULLANICI_DEVAM&#45;&gt;INDIRIM_KODU_VAR_MI -->
<g id="edge11" class="edge">
<title>KULLANICI_DEVAM-&gt;INDIRIM_KODU_VAR_MI</title>
<path fill="none" stroke="black" d="M648.85,-1431.45C648.85,-1419.76 648.85,-1403.99 648.85,-1390.42"/>
<polygon fill="black" stroke="black" points="652.35,-1390.72 648.85,-1380.72 645.35,-1390.72 652.35,-1390.72"/>
<text xml:space="preserve" text-anchor="middle" x="704.25" y="-1401" font-family="Times,serif" font-size="14.00">HAYIR (Checkout)</text>
</g>
<!-- STOK_YETERLI_MI&#45;&gt;YAZ_EKLEME_HATA -->
<g id="edge5" class="edge">
<title>STOK_YETERLI_MI-&gt;YAZ_EKLEME_HATA</title>
<path fill="none" stroke="black" d="M703.38,-1675C672.28,-1660.71 623.54,-1638.32 587.17,-1621.6"/>
<polygon fill="black" stroke="black" points="588.72,-1618.46 578.17,-1617.47 585.79,-1624.82 588.72,-1618.46"/>
<text xml:space="preserve" text-anchor="middle" x="675.98" y="-1641.4" font-family="Times,serif" font-size="14.00">HAYIR</text>
</g>
<!-- STOK_YETERLI_MI&#45;&gt;EKLE_URUN -->
<g id="edge7" class="edge">
<title>STOK_YETERLI_MI-&gt;EKLE_URUN</title>
<path fill="none" stroke="black" d="M742.47,-1672.57C748.78,-1660.53 757.53,-1643.86 765.07,-1629.47"/>
<polygon fill="black" stroke="black" points="768.06,-1631.32 769.6,-1620.83 761.86,-1628.06 768.06,-1631.32"/>
<text xml:space="preserve" text-anchor="middle" x="778.04" y="-1641.4" font-family="Times,serif" font-size="14.00">EVET</text>
</g>
<!-- INDIRIM_KODU_VAR_MI&#45;&gt;OKU_INDIRIM_TERCIH -->
<g id="edge12" class="edge">
<title>INDIRIM_KODU_VAR_MI-&gt;OKU_INDIRIM_TERCIH</title>
<path fill="none" stroke="black" d="M640.75,-1343.06C634.9,-1330.97 626.87,-1314.37 620.09,-1300.37"/>
<polygon fill="black" stroke="black" points="623.37,-1299.12 615.87,-1291.64 617.07,-1302.17 623.37,-1299.12"/>
<text xml:space="preserve" text-anchor="middle" x="649.49" y="-1312.2" font-family="Times,serif" font-size="14.00">EVET</text>
</g>
<!-- INDIRIM_KODU_VAR_MI&#45;&gt;OKU_ADRES -->
<g id="edge19" class="edge">
<title>INDIRIM_KODU_VAR_MI-&gt;OKU_ADRES</title>
<path fill="none" stroke="black" d="M745.6,-1350.3C791.67,-1339.86 836.85,-1318.12 836.85,-1273 836.85,-1273 836.85,-1273 836.85,-1001.8 836.85,-977.79 819.28,-961.37 797.52,-950.23"/>
<polygon fill="black" stroke="black" points="799.2,-947.15 788.66,-946.11 796.25,-953.5 799.2,-947.15"/>
<text xml:space="preserve" text-anchor="middle" x="859.01" y="-1134.6" font-family="Times,serif" font-size="14.00">HAYIR</text>
</g>
<!-- KOD_GECERLI_MI&#45;&gt;YAZ_INDIRIM_HATA -->
<g id="edge17" class="edge">
<title>KOD_GECERLI_MI-&gt;YAZ_INDIRIM_HATA</title>
<path fill="none" stroke="black" d="M565.05,-1078.4C536.74,-1064.15 493.81,-1042.54 461.43,-1026.24"/>
<polygon fill="black" stroke="black" points="463.17,-1023.2 452.67,-1021.83 460.02,-1029.45 463.17,-1023.2"/>
<text xml:space="preserve" text-anchor="middle" x="543.96" y="-1045.8" font-family="Times,serif" font-size="14.00">HAYIR</text>
</g>
<!-- KOD_GECERLI_MI&#45;&gt;HESAPLA_INDIRIM -->
<g id="edge15" class="edge">
<title>KOD_GECERLI_MI-&gt;HESAPLA_INDIRIM</title>
<path fill="none" stroke="black" d="M615.92,-1077.79C633.42,-1064.84 658.71,-1046.11 679.47,-1030.74"/>
<polygon fill="black" stroke="black" points="681.48,-1033.61 687.43,-1024.84 677.31,-1027.98 681.48,-1033.61"/>
<text xml:space="preserve" text-anchor="middle" x="680.47" y="-1045.8" font-family="Times,serif" font-size="14.00">EVET</text>
</g>
<!-- STOKLAR_SON_KONTROL&#45;&gt;YAZ_SEPET_GUNCEL_HATA -->
<g id="edge23" class="edge">
<title>STOKLAR_SON_KONTROL-&gt;YAZ_SEPET_GUNCEL_HATA</title>
<path fill="none" stroke="black" d="M759.09,-760.55C802.94,-746.5 871.35,-724.59 921.76,-708.45"/>
<polygon fill="black" stroke="black" points="922.65,-711.84 931.1,-705.45 920.51,-705.17 922.65,-711.84"/>
<text xml:space="preserve" text-anchor="middle" x="897.79" y="-726.8" font-family="Times,serif" font-size="14.00">HAYIR</text>
</g>
<!-- STOKLAR_SON_KONTROL&#45;&gt;REZERV_ET -->
<g id="edge22" class="edge">
<title>STOKLAR_SON_KONTROL-&gt;REZERV_ET</title>
<path fill="none" stroke="black" d="M700.62,-758.48C688.5,-745.8 671.28,-727.79 657.24,-713.11"/>
<polygon fill="black" stroke="black" points="659.88,-710.81 650.44,-706 654.83,-715.65 659.88,-710.81"/>
<text xml:space="preserve" text-anchor="middle" x="699.66" y="-726.8" font-family="Times,serif" font-size="14.00">EVET</text>
</g>
<!-- ODEME_BASARILI_MI&#45;&gt;OKU_ODEME_YONTEMI -->
<g id="edge26" class="edge">
<title>ODEME_BASARILI_MI-&gt;OKU_ODEME_YONTEMI</title>
<path fill="none" stroke="black" d="M632.85,-579.65C632.85,-567.96 632.85,-552.19 632.85,-538.62"/>
<polygon fill="black" stroke="black" points="636.35,-538.92 632.85,-528.92 629.35,-538.92 636.35,-538.92"/>
<text xml:space="preserve" text-anchor="middle" x="715.67" y="-549.2" font-family="Times,serif" font-size="14.00">HAYIR (Döngü Başlangıcı)</text>
</g>
<!-- KART_ODEME_MI&#45;&gt;OKU_KART_BILGI -->
<g id="edge28" class="edge">
<title>KART_ODEME_MI-&gt;OKU_KART_BILGI</title>
<path fill="none" stroke="black" d="M495.85,-417.85C495.85,-406.16 495.85,-390.39 495.85,-376.82"/>
<polygon fill="black" stroke="black" points="499.35,-377.12 495.85,-367.12 492.35,-377.12 499.35,-377.12"/>
<text xml:space="preserve" text-anchor="middle" x="513.73" y="-387.4" font-family="Times,serif" font-size="14.00">EVET</text>
</g>
<!-- KART_ODEME_MI&#45;&gt;SIPARIS_OLUSTUR -->
<g id="edge33" class="edge">
<title>KART_ODEME_MI-&gt;SIPARIS_OLUSTUR</title>
<path fill="none" stroke="black" d="M448.99,-422.53C387.02,-403.13 280.88,-359.05 239.85,-276.4 227.52,-251.57 236.83,-220.5 247.41,-197.97"/>
<polygon fill="black" stroke="black" points="250.4,-199.82 251.77,-189.32 244.15,-196.67 250.4,-199.82"/>
<text xml:space="preserve" text-anchor="middle" x="350.12" y="-298.6" font-family="Times,serif" font-size="14.00">HAYIR (Kapıda Ödeme/Diğer)</text>
</g>
<!-- ODEME_AG_GECIDI_ONAY&#45;&gt;YAZ_ODEME_HATA -->
<g id="edge31" class="edge">
<title>ODEME_AG_GECIDI_ONAY-&gt;YAZ_ODEME_HATA</title>
<path fill="none" stroke="black" d="M533.9,-242.7C571.46,-228.2 629.33,-205.85 672.09,-189.33"/>
<polygon fill="black" stroke="black" points="673.13,-192.68 681.2,-185.82 670.61,-186.15 673.13,-192.68"/>
<text xml:space="preserve" text-anchor="middle" x="647.9" y="-209.8" font-family="Times,serif" font-size="14.00">HAYIR</text>
</g>
<!-- ODEME_AG_GECIDI_ONAY&#45;&gt;SIPARIS_OLUSTUR -->
<g id="edge30" class="edge">
<title>ODEME_AG_GECIDI_ONAY-&gt;SIPARIS_OLUSTUR</title>
<path fill="none" stroke="black" d="M457.96,-242.7C422.64,-229 369.29,-208.31 327.61,-192.14"/>
<polygon fill="black" stroke="black" points="329.01,-188.93 318.42,-188.58 326.47,-195.46 329.01,-188.93"/>
<text xml:space="preserve" text-anchor="middle" x="418.92" y="-209.8" font-family="Times,serif" font-size="14.00">EVET</text>
</g>
</g>
</svg>